<?xml version="1.0" encoding="UTF-8" standalone="no"?>
<svg
   xmlns:dc="http://purl.org/dc/elements/1.1/"
   xmlns:cc="http://creativecommons.org/ns#"
   xmlns:rdf="http://www.w3.org/1999/02/22-rdf-syntax-ns#"
   xmlns:svg="http://www.w3.org/2000/svg"
   xmlns="http://www.w3.org/2000/svg"
   viewBox="0 0 177.16499 177.16499"
   height="177.16499"
   width="177.16499"
   xml:space="preserve"
   version="1.1"
   id="svg2"><metadata
     id="metadata8"><rdf:RDF><cc:Work
         rdf:about=""><dc:format>image/svg+xml</dc:format><dc:type
           rdf:resource="http://purl.org/dc/dcmitype/StillImage" /></cc:Work></rdf:RDF></metadata><defs
     id="defs6"><clipPath
       id="clipPath28"
       clipPathUnits="userSpaceOnUse"><path
         id="path30"
         d="m 0,141.732 141.732,0 L 141.732,0 0,0 0,141.732 Z" /></clipPath><clipPath
       id="clipPath48"
       clipPathUnits="userSpaceOnUse"><path
         id="path50"
         d="m 47.302,68.218 0.78,-9.704 22.755,9.729 0,9.778 -23.535,-9.803 z" /></clipPath><linearGradient
       id="linearGradient60"
       spreadMethod="pad"
       gradientTransform="matrix(-9e-7,19.505859,19.505859,9e-7,59.069336,58.514648)"
       gradientUnits="userSpaceOnUse"
       y2="0"
       x2="1"
       y1="0"
       x1="0"><stop
         id="stop62"
         offset="0"
         style="stop-opacity:0;stop-color:#ffffff" /><stop
         id="stop64"
         offset="0.386503"
         style="stop-opacity:0;stop-color:#ffffff" /><stop
         id="stop66"
         offset="1"
         style="stop-opacity:1;stop-color:#ffffff" /></linearGradient><mask
       id="mask68"
       height="1"
       width="1"
       y="0"
       x="0"
       maskUnits="userSpaceOnUse"><g
         id="g70"><g
           id="g72"><g
             id="g74"><g
               id="g76"><path
                 id="path78"
                 style="fill:url(#linearGradient60);stroke:none"
                 d="m -32768,32767 65535,0 0,-65535 -65535,0 0,65535 z" /></g></g></g></g></mask><linearGradient
       id="linearGradient84"
       spreadMethod="pad"
       gradientTransform="matrix(-9e-7,19.505859,19.505859,9e-7,59.069336,58.514648)"
       gradientUnits="userSpaceOnUse"
       y2="0"
       x2="1"
       y1="0"
       x1="0"><stop
         id="stop86"
         offset="0"
         style="stop-opacity:1;stop-color:#d2d4d5" /><stop
         id="stop88"
         offset="0.386503"
         style="stop-opacity:1;stop-color:#d2d4d5" /><stop
         id="stop90"
         offset="1"
         style="stop-opacity:1;stop-color:#d2d4d5" /></linearGradient><clipPath
       id="clipPath98"
       clipPathUnits="userSpaceOnUse"><path
         id="path100"
         d="m 70.837,78.021 0,-9.778 24.206,10.349 1.003,9.927 -25.209,-10.498 z" /></clipPath><linearGradient
       id="linearGradient110"
       spreadMethod="pad"
       gradientTransform="matrix(-9e-7,20.275391,20.275391,9e-7,83.441406,68.243164)"
       gradientUnits="userSpaceOnUse"
       y2="0"
       x2="1"
       y1="0"
       x1="0"><stop
         id="stop112"
         offset="0"
         style="stop-opacity:0;stop-color:#ffffff" /><stop
         id="stop114"
         offset="0.386503"
         style="stop-opacity:0;stop-color:#ffffff" /><stop
         id="stop116"
         offset="1"
         style="stop-opacity:1;stop-color:#ffffff" /></linearGradient><mask
       id="mask118"
       height="1"
       width="1"
       y="0"
       x="0"
       maskUnits="userSpaceOnUse"><g
         id="g120"><g
           id="g122"><g
             id="g124"><g
               id="g126"><path
                 id="path128"
                 style="fill:url(#linearGradient110);stroke:none"
                 d="m -32768,32767 65535,0 0,-65535 -65535,0 0,65535 z" /></g></g></g></g></mask><linearGradient
       id="linearGradient134"
       spreadMethod="pad"
       gradientTransform="matrix(-9e-7,20.275391,20.275391,9e-7,83.441406,68.243164)"
       gradientUnits="userSpaceOnUse"
       y2="0"
       x2="1"
       y1="0"
       x1="0"><stop
         id="stop136"
         offset="0"
         style="stop-opacity:1;stop-color:#d2d4d5" /><stop
         id="stop138"
         offset="0.386503"
         style="stop-opacity:1;stop-color:#d2d4d5" /><stop
         id="stop140"
         offset="1"
         style="stop-opacity:1;stop-color:#d2d4d5" /></linearGradient><linearGradient
       id="linearGradient156"
       spreadMethod="pad"
       gradientTransform="matrix(46.850586,0,0,-46.850586,47.336914,49.813477)"
       gradientUnits="userSpaceOnUse"
       y2="0"
       x2="1"
       y1="0"
       x1="0"><stop
         id="stop158"
         offset="0"
         style="stop-opacity:1;stop-color:#e9e8e6" /><stop
         id="stop160"
         offset="1"
         style="stop-opacity:1;stop-color:#ffffff" /></linearGradient><clipPath
       id="clipPath168"
       clipPathUnits="userSpaceOnUse"><path
         id="path170"
         d="m 0,141.732 141.732,0 L 141.732,0 0,0 0,141.732 Z" /></clipPath><clipPath
       id="clipPath176"
       clipPathUnits="userSpaceOnUse"><path
         id="path178"
         d="m 47.3018,68.2178 23.5351,0 0,-36.8086 -23.5351,0 0,36.8086 z" /></clipPath><linearGradient
       id="linearGradient204"
       spreadMethod="pad"
       gradientTransform="matrix(50.864258,0,0,-50.864258,45.181641,83.555664)"
       gradientUnits="userSpaceOnUse"
       y2="0"
       x2="1"
       y1="0"
       x1="0"><stop
         id="stop206"
         offset="0"
         style="stop-opacity:1;stop-color:#e9e8e6" /><stop
         id="stop208"
         offset="1"
         style="stop-opacity:1;stop-color:#ffffff" /></linearGradient><clipPath
       id="clipPath216"
       clipPathUnits="userSpaceOnUse"><path
         id="path218"
         d="m 0,141.732 141.732,0 L 141.732,0 0,0 0,141.732 Z" /></clipPath><clipPath
       id="clipPath224"
       clipPathUnits="userSpaceOnUse"><path
         id="path226"
         d="m 45.1816,88.519 25.6553,0 0,-9.9267 -25.6553,0 0,9.9267 z" /></clipPath></defs><g
     transform="matrix(1.25,0,0,-1.25,0,177.165)"
     id="g10"><g
       transform="translate(103.748,23.0283)"
       id="g12"><path
         id="path14"
         style="fill:#3669b1;fill-opacity:1;fill-rule:nonzero;stroke:none"
         d="M 0,0 -32.882,-8.855 -65.765,0 -73.354,82.206 7.59,82.206 0,0 Z" /></g><g
       transform="translate(70.8662,98.5757)"
       id="g16"><path
         id="path18"
         style="fill:#4a9fd8;fill-opacity:1;fill-rule:nonzero;stroke:none"
         d="m 0,0 0,-77.34 0.073,-0.02 26.612,7.164 L 32.826,0 0,0 Z" /></g><g
       transform="translate(52.2041,117.312)"
       id="g20"><path
         id="path22"
         style="fill:#373535;fill-opacity:1;fill-rule:nonzero;stroke:none"
         d="m 0,0 0,4.893 7.138,0 0,5.354 -12.492,0 0,-15.132 12.492,0 L 7.138,0 0,0 Z" /></g><g
       id="g24"><g
         clip-path="url(#clipPath28)"
         id="g26"><g
           transform="translate(72.1846,122.2051)"
           id="g32"><path
             id="path34"
             style="fill:#373535;fill-opacity:1;fill-rule:nonzero;stroke:none"
             d="m 0,0 4.991,0 0,5.354 -12.495,0 0,-5.354 c 1.672,-1.671 2.544,-2.472 4.961,-4.89 -1.413,0 -4.961,-0.005 -4.961,-0.004 l 0,-4.884 12.495,0 0,4.885 L 0,0 Z" /></g><g
           transform="translate(89.8936,122.2051)"
           id="g36"><path
             id="path38"
             style="fill:#373535;fill-opacity:1;fill-rule:nonzero;stroke:none"
             d="m 0,0 4.99,0 0,5.354 -12.494,0 0,-5.354 c 1.671,-1.671 2.543,-2.472 4.961,-4.89 -1.413,0 -4.961,-0.005 -4.961,-0.004 l 0,-4.884 12.494,0 0,4.885 L 0,0 Z" /></g><g
           transform="translate(70.8369,78.021)"
           id="g40"><path
             id="path42"
             style="fill:#ffffff;fill-opacity:1;fill-rule:nonzero;stroke:none"
             d="m 0,0 -23.535,-9.803 0.78,-9.703 L 0,-9.778 24.206,0.571 25.209,10.498 0,0 Z" /></g></g></g><g
       id="g44"><g
         clip-path="url(#clipPath48)"
         id="g46"><g
           id="g52"><g
             id="g54" /><g
             mask="url(#mask68)"
             id="g80"><g
               id="g82"><path
                 id="path92"
                 style="fill:url(#linearGradient84);stroke:none"
                 d="m 47.302,68.218 0.78,-9.704 22.755,9.729 0,9.778 -23.535,-9.803 z" /></g></g></g></g></g><g
       id="g94"><g
         clip-path="url(#clipPath98)"
         id="g96"><g
           id="g102"><g
             id="g104" /><g
             mask="url(#mask118)"
             id="g130"><g
               id="g132"><path
                 id="path142"
                 style="fill:url(#linearGradient134);stroke:none"
                 d="m 70.837,78.021 0,-9.778 24.206,10.349 1.003,9.927 -25.209,-10.498 z" /></g></g></g></g></g><g
       id="g144"><g
         id="g146"><g
           id="g152"><g
             id="g154"><path
               id="path162"
               style="fill:url(#linearGradient156);stroke:none"
               d="m 47.337,68.218 0.781,-9.704 34.914,-0.11 -0.78,-12.94 -11.49,-3.234 -11.043,2.786 -0.67,8.032 -10.262,0 1.339,-15.504 20.748,-6.135 20.636,6.024 2.678,30.785 -46.851,0 z" /></g></g></g></g><g
       id="g164"><g
         clip-path="url(#clipPath168)"
         id="g166"><g
           id="g172"><g
             id="g174" /><g
             id="g180"><g
               style="opacity:0.05000311"
               id="g182"
               clip-path="url(#clipPath176)"><g
                 id="g184"
                 transform="translate(70.8369,68.2178)"><path
                   id="path186"
                   style="fill:#373535;fill-opacity:1;fill-rule:nonzero;stroke:none"
                   d="m 0,0 -23.535,0 0.78,-9.703 L 0,-9.777 0,0 Z" /></g><g
                 id="g188"
                 transform="translate(70.8369,42.2607)"><path
                   id="path190"
                   style="fill:#373535;fill-opacity:1;fill-rule:nonzero;stroke:none"
                   d="m 0,0 -0.111,-0.031 -11.044,2.787 -0.669,8.031 -10.261,0 1.338,-15.504 L 0,-10.852 0,0 Z" /></g></g></g></g></g></g><g
       id="g192"><g
         id="g194"><g
           id="g200"><g
             id="g202"><path
               id="path210"
               style="fill:url(#linearGradient204);stroke:none"
               d="m 45.182,88.519 1.227,-9.927 48.634,0 1.003,9.927 -50.864,0 z" /></g></g></g></g><g
       id="g212"><g
         clip-path="url(#clipPath216)"
         id="g214"><g
           id="g220"><g
             id="g222" /><g
             id="g228"><g
               style="opacity:0.05000311"
               id="g230"
               clip-path="url(#clipPath224)"><g
                 id="g232"
                 transform="translate(70.8369,88.519)"><path
                   id="path234"
                   style="fill:#373535;fill-opacity:1;fill-rule:nonzero;stroke:none"
                   d="M 0,0 -25.655,0 -24.428,-9.927 0,-9.927 0,0 Z" /></g></g></g></g></g></g></g></svg>